<svg xmlns="http://www.w3.org/2000/svg" xmlns:xlink="http://www.w3.org/1999/xlink" version="1.1" width="687.5pt" height="211.2pt" viewBox="0 0 687.5 211.2">
<defs>
<clipPath id="clip_0">
<path transform="matrix(1,0,0,-1,0,211.2)" d="M10.7 40.92H207.64118V204H10.7Z"/>
</clipPath>
<clipPath id="clip_1">
<path transform="matrix(1,0,0,-1,0,211.2)" d="M10.7 40.92H207.64118V204H10.7Z"/>
</clipPath>
<clipPath id="clip_2">
<path transform="matrix(1,0,0,-1,0,211.2)" d="M10.7 40.92H207.64118V204H10.7Z"/>
</clipPath>
<clipPath id="clip_3">
<path transform="matrix(1,0,0,-1,0,211.2)" d="M247.0294 40.92H443.97059V204H247.0294Z"/>
</clipPath>
<clipPath id="clip_4">
<path transform="matrix(1,0,0,-1,0,211.2)" d="M247.0294 40.92H443.97059V204H247.0294Z"/>
</clipPath>
<clipPath id="clip_5">
<path transform="matrix(1,0,0,-1,0,211.2)" d="M247.0294 40.92H443.97059V204H247.0294Z"/>
</clipPath>
<g id="font_6_80">
<path transform="matrix(.001,0,0,.001,0,0)" d="M169 729H397C463 729 514 713 549 682 583 651 601 606 601 547 601 467 575 404 524 360 472 315 400 293 307 293H183L126 0H27L169 729ZM252 648 199 374H323C379 374 422 388 452 417 482 445 497 486 497 540 497 574 486 600 466 619 446 638 417 648 381 648H252Z"/>
</g>
<g id="font_7_97">
<path transform="matrix(.001,0,0,.001,0,0)" d="M343 275C270 275 220 266 192 250 164 233 150 205 150 165 150 133 160 107 181 89 202 70 231 61 267 61 317 61 357 78 387 114 417 149 432 196 432 255V275H343ZM522 312V0H432V83C411 49 385 25 355 10 325-5 287-13 243-13 187-13 142 2 109 33 76 64 60 106 60 159 60 220 80 266 122 298 163 329 224 345 306 345H432V354C432 395 418 427 391 450 364 472 326 484 277 484 245 484 215 480 185 472 155 464 127 453 100 439V522C132 534 164 544 195 550 226 556 256 560 286 560 365 560 424 539 463 498 502 457 522 395 522 312Z"/>
</g>
<g id="font_7_114">
<path transform="matrix(.001,0,0,.001,0,0)" d="M411 463C401 469 390 473 378 476 366 478 353 480 339 480 288 480 249 463 222 430 194 397 181 350 181 288V0H91V547H181V462C199 495 224 520 254 536 284 552 321 560 365 560 371 560 378 559 386 559 393 558 401 557 411 555V463Z"/>
</g>
<g id="font_7_103">
<path transform="matrix(.001,0,0,.001,0,0)" d="M454 280C454 344 440 395 414 431 387 467 349 485 301 485 253 485 215 467 188 431 161 395 148 344 148 280 148 215 161 165 188 129 215 93 253 75 301 75 349 75 387 93 414 129 440 165 454 215 454 280ZM544 68C544-24 523-93 482-139 440-184 377-207 292-207 260-207 231-204 203-200 175-195 147-188 121-178V-91C147-105 173-115 199-122 225-129 251-133 278-133 336-133 380-117 410-87 439-56 454-10 454 52V96C435 64 411 40 382 24 353 8 319 0 279 0 211 0 157 25 116 76 75 127 55 195 55 280 55 364 75 432 116 483 157 534 211 560 279 560 319 560 353 552 382 536 411 520 435 496 454 464V547H544V68Z"/>
</g>
<g id="font_7_109">
<path transform="matrix(.001,0,0,.001,0,0)" d="M520 442C542 482 569 511 600 531 631 550 668 560 711 560 767 560 811 540 842 500 873 460 889 403 889 330V0H799V327C799 379 789 418 771 444 752 469 724 482 686 482 639 482 602 466 575 435 548 404 535 362 535 309V0H445V327C445 379 435 418 417 444 398 469 369 482 331 482 285 482 248 466 221 435 194 404 181 362 181 309V0H91V547H181V462C201 495 226 520 255 536 283 552 317 560 357 560 397 560 430 550 458 530 486 510 506 480 520 442Z"/>
</g>
<g id="font_7_105">
<path transform="matrix(.001,0,0,.001,0,0)" d="M94 547H184V0H94V547ZM94 760H184V646H94V760Z"/>
</g>
<g id="font_7_110">
<path transform="matrix(.001,0,0,.001,0,0)" d="M549 330V0H459V327C459 379 448 417 428 443 408 469 378 482 338 482 289 482 251 466 223 435 195 404 181 362 181 309V0H91V547H181V462C202 494 227 519 257 535 286 551 320 560 358 560 420 560 468 540 500 501 532 462 549 405 549 330Z"/>
</g>
<g id="font_6_81">
<path transform="matrix(.001,0,0,.001,0,0)" d="M361-12C357-12 353-13 349-13 345-13 340-13 332-13 240-13 169 13 118 65 66 117 41 189 41 281 41 335 50 389 70 444 90 498 117 548 153 592 193 642 239 679 290 704 341 729 397 742 459 742 548 742 618 715 670 663 721 610 747 538 747 448 747 350 720 260 666 179 612 97 542 40 456 7L555-128H445L361-12ZM456 662C402 662 354 648 313 622 271 596 235 556 205 503 185 469 170 432 160 394 150 355 145 316 145 278 145 210 161 157 193 121 225 84 271 66 331 66 384 66 432 79 474 106 516 132 551 172 581 224 601 259 616 296 626 335 636 373 642 412 642 450 642 517 625 569 593 606 560 643 514 662 456 662Z"/>
</g>
<g id="font_7_75">
<path transform="matrix(.001,0,0,.001,0,0)" d="M98 729H197V421L524 729H651L289 389 677 0H547L197 351V0H98V729Z"/>
</g>
<g id="font_7_76">
<path transform="matrix(.001,0,0,.001,0,0)" d="M98 729H197V83H552V0H98V729Z"/>
</g>
<g id="font_7_40">
<path transform="matrix(.001,0,0,.001,0,0)" d="M310 759C266 683 234 609 213 536 191 463 181 389 181 314 181 238 191 164 213 91 234 17 266-56 310-131H232C183-54 146 20 122 94 98 168 86 241 86 314 86 386 98 459 122 533 146 607 182 682 232 759H310Z"/>
</g>
<g id="font_7_124">
<path transform="matrix(.001,0,0,.001,0,0)" d="M210 764V-235H127V764H210Z"/>
</g>
<g id="font_7_41">
<path transform="matrix(.001,0,0,.001,0,0)" d="M80 759H158C206 682 243 607 267 533 291 459 304 386 304 314 304 241 291 168 267 94 243 20 206-54 158-131H80C123-56 155 17 177 91 198 164 209 238 209 314 209 389 198 463 177 536 155 609 123 683 80 759Z"/>
</g>
<clipPath id="clip_8">
<path transform="matrix(1,0,0,-1,0,211.2)" d="M483.35884 40.92H680.3V204H483.35884Z"/>
</clipPath>
<clipPath id="clip_9">
<path transform="matrix(1,0,0,-1,0,211.2)" d="M483.35884 40.92H680.3V204H483.35884Z"/>
</clipPath>
<clipPath id="clip_10">
<path transform="matrix(1,0,0,-1,0,211.2)" d="M483.35884 40.92H680.3V204H483.35884Z"/>
</clipPath>
</defs>
<path transform="matrix(1,0,0,-1,0,211.2)" d="M10.7 40.92H207.64118V204H10.7Z" fill="#ffffff"/>
<g clip-path="url(#clip_0)">
<path transform="matrix(1,0,0,-1,0,211.2)" stroke-width="1.5" stroke-linecap="square" stroke-linejoin="round" fill="none" stroke="#000000" d="M19.651873 48.33304 31.838604 48.444597 34.88529 48.696954 36.85667 49.06773 38.46962 49.59195 39.903356 50.310159 41.15787 51.206563 42.23317 52.230707 43.308469 53.54409 44.38377 55.200208 45.45907 57.252996 46.53437 59.753435 47.788888 63.294263 49.043405 67.55184 50.477136 73.31256 52.090085 80.86953 54.061468 91.34117 59.079538 118.71144 60.33405 124.1638 61.40935 127.94976 62.305437 130.37227 63.0223 131.78816 63.739168 132.71949 64.27682 133.09494 64.81447 133.19423 65.35212 133.02188 65.88977 132.58608 66.606639 131.61588 67.3235 130.23567 68.21958 128.00649 69.4741 124.14881 71.44548 117.161647 73.41687 110.392589 74.67139 106.869068 75.56747 104.93822 76.28433 103.81262 77.0012 103.0943 77.53885 102.83533 78.0765 102.82101 78.61415 103.051578 79.1518 103.523418 79.86867 104.51452 80.58553 105.89331 81.48161 108.10231 82.73613 111.92209 84.70752 118.88343 86.858119 126.25058 87.93342 129.25218 88.8295 131.19374 89.546367 132.30699 90.26323 132.98442 90.80088 133.188 91.33853 133.12071 91.87618 132.77758 92.41383 132.15727 93.1307 130.90338 93.847568 129.17589 94.743648 126.389369 95.81895 122.21861 97.07346 116.40787 98.86563 106.8895 103.8837 79.40585 105.49665 72.04744 106.93038 66.48227 108.1849 62.396406 109.439418 59.018499 110.69393 56.29406 111.94845 54.148904 113.02374 52.707746 114.27826 51.414449 115.532779 50.461248 116.78729 49.77429 118.22103 49.23423 120.0132 48.816308 122.34301 48.5354 125.74813 48.383066 133.27523 48.334115 198.6893 48.332727"/>
</g>
<g clip-path="url(#clip_1)">
<path transform="matrix(1,0,0,-1,0,211.2)" stroke-width="1.5" stroke-linecap="butt" stroke-dasharray="5.55,2.4" stroke-linejoin="round" fill="none" stroke="#ff0000" d="M19.651873 48.571249 24.132288 48.901334 27.358189 49.351087 30.046437 49.943155 32.376256 50.68082 34.526857 51.603864 36.498239 52.704099 38.2904 53.956846 40.08257 55.48915 41.874738 57.338949 43.666906 59.54243 45.45907 62.131814 47.251237 65.132808 49.043405 68.56186 51.014787 72.83302 53.165388 78.07069 55.4952 84.36324 58.362668 92.81038 67.502719 120.407199 69.4741 125.36032 71.08705 128.86083 72.52078 131.47908 73.7753 133.34558 74.8506 134.60643 75.9259 135.53868 76.82198 136.05648 77.71806 136.33409 78.61415 136.36925 79.51023 136.16165 80.40632 135.713 81.3024 135.02703 82.3777 133.8986 83.452999 132.44986 84.70752 130.37741 86.14125 127.544849 87.754199 123.83451 89.72558 118.67529 92.23461 111.38551 96.715038 97.47799 100.478588 86.12595 102.98762 79.2087 105.31743 73.43325 107.28881 69.0939 109.2602 65.27685 111.05236 62.25699 112.84453 59.6497 114.636699 57.429624 116.42886 55.56477 118.22103 54.019079 120.0132 52.75465 121.98458 51.64349 123.95596 50.77865 126.285778 50.013738 128.79482 49.432004 131.84149 48.970228 135.60504 48.64393 140.80233 48.439439 149.76316 48.34628 187.93631 48.332727H198.6893"/>
</g>
<g clip-path="url(#clip_2)">
<path transform="matrix(1,0,0,-1,0,211.2)" stroke-width="1.5" stroke-linecap="butt" stroke-dasharray="1.5,2.475" stroke-linejoin="round" fill="none" stroke="#008000" d="M19.651873 48.370225 26.641322 48.553396 30.404871 48.854909 33.27234 49.29622 35.602155 49.87409 37.573537 50.582307 39.365705 51.456193 40.978654 52.476865 42.591604 53.765684 44.20455 55.37063 45.638288 57.10271 47.072019 59.15826 48.505754 61.569894 50.118703 64.74437 51.73165 68.43818 53.3446 72.67046 55.13677 78.00643 57.10815 84.612468 59.43797 93.29229 62.48465 105.65034 67.86115 127.61674 69.832538 134.707 71.44548 139.75397 72.87922 143.52639 74.133739 146.19298 75.20903 147.96251 76.10512 149.05165 77.0012 149.77744 77.71806 150.09096 78.43494 150.16454 79.1518 149.99764 79.86867 149.59146 80.58553 148.94887 81.48161 147.8202 82.3777 146.34166 83.452999 144.12837 84.70752 140.98459 86.14125 136.73102 87.754199 131.23676 89.9048 123.03541 93.30991 108.9809 97.25268 92.90652 99.5825 84.263 101.73309 77.13468 103.52526 71.90135 105.31743 67.33618 106.93038 63.792284 108.54333 60.759725 110.15628 58.203245 111.76923 56.079454 113.38218 54.34033 114.99513 52.936235 116.60808 51.818357 118.400249 50.855958 120.37163 50.071298 122.52223 49.4674 125.031269 49.004137 128.07794 48.674215 132.37915 48.45499 139.5478 48.350999 165.1758 48.33273 198.6893 48.332727"/>
</g>
<path transform="matrix(1,0,0,-1,0,211.2)" stroke-width=".8" stroke-linecap="square" stroke-miterlimit="10" stroke-linejoin="miter" fill="none" stroke="#000000" d="M10.7 40.92V204"/>
<path transform="matrix(1,0,0,-1,0,211.2)" stroke-width=".8" stroke-linecap="square" stroke-miterlimit="10" stroke-linejoin="miter" fill="none" stroke="#000000" d="M10.7 40.92H207.64118"/>
<path transform="matrix(1,0,0,-1,0,211.2)" d="M247.02942 40.92H443.97059V204H247.02942Z" fill="#ffffff"/>
<g clip-path="url(#clip_3)">
<path transform="matrix(1,0,0,-1,0,211.2)" stroke-width="1.5" stroke-linecap="square" stroke-linejoin="round" fill="none" stroke="#000000" d="M255.98128 48.33304 268.16804 48.444597 271.2147 48.696954 273.1861 49.067728 274.79905 49.59195 276.23277 50.31015 277.48728 51.206548 278.5626 52.23068 279.63789 53.54404 280.7132 55.200117 281.78849 57.252824 282.86378 59.753118 284.1183 63.29363 285.3728 67.5506 286.80656 73.30996 288.4195 80.86371 290.39088 91.32629 295.22975 117.73417 296.48426 123.2482 297.55955 127.08131 298.45564 129.5251 299.1725 130.93654 299.88938 131.8353 300.427 132.16225 300.96467 132.18746 301.50233 131.91063 302.03996 131.33478 302.75685 130.11298 303.4737 128.39408 304.36979 125.59627 305.44508 121.394878 306.6996 115.544178 308.49177 105.991199 313.3306 79.532459 314.94358 72.15856 316.3773 66.576747 317.6318 62.475854 318.88633 59.083547 320.14085 56.345998 321.39537 54.189416 322.47068 52.739946 323.7252 51.438714 324.9797 50.47945 326.23423 49.788274 327.66795 49.245744 329.4601 48.82903 331.61073 48.57416 334.47819 48.478425 337.34565 48.593606 339.49626 48.873029 341.28843 49.32354 342.72215 49.906095 343.97666 50.644594 345.23118 51.664926 346.3065 52.82097 347.38179 54.291715 348.45707 56.131189 349.53239 58.39235 350.60768 61.12328 351.86219 64.95392 353.1167 69.51175 354.55046 75.60621 356.1634 83.48786 358.314 95.21989 362.07756 115.87944 363.51127 122.43179 364.58659 126.43404 365.48268 129.03942 366.19953 130.59056 366.91639 131.6356 367.45405 132.07494 367.9917 132.21344 368.52934 132.04965 369.067 131.58535 369.60466 130.8255 370.3215 129.36716 371.2176 126.868999 372.11369 123.68898 373.3682 118.26493 374.98115 110.05376 378.20704 91.94886 380.35765 80.52794 381.97059 73.0187 383.40434 67.30364 384.65885 63.085824 385.91337 59.58263 387.16789 56.744459 388.4224 54.499994 389.49769 52.986097 390.7522 51.622266 392.0067 50.612928 393.26124 49.88255 394.69499 49.3059 396.30793 48.89187 398.45854 48.586648 401.5052 48.40791 407.41935 48.337816 435.0187 48.332727"/>
</g>
<g clip-path="url(#clip_4)">
<path transform="matrix(1,0,0,-1,0,211.2)" stroke-width="1.5" stroke-linecap="butt" stroke-dasharray="5.55,2.4" stroke-linejoin="round" fill="none" stroke="#ff0000" d="M255.98128 52.245477 260.28248 53.391195 264.40449 54.714399 268.52647 56.276067 272.4692 58.003629 276.5912 60.057264 280.7132 62.356904 285.1936 65.112689 290.39088 68.58698 297.55955 73.6833 306.6996 80.14652 311.18003 83.04333 314.94358 85.22325 318.34867 86.938129 321.39537 88.228038 324.26283 89.20587 326.95109 89.897678 329.6393 90.35983 332.32759 90.58448 334.8366 90.57643 337.34565 90.35822 340.0339 89.89497 342.72215 89.202129 345.5896 88.22325 348.6363 86.93232 351.86219 85.31331 355.44654 83.25455 359.5685 80.61936 364.945 76.894908 380.53688 65.918689 385.3757 62.880254 389.6769 60.433156 393.7989 58.33667 397.92088 56.49281 402.04286 54.899789 406.16484 53.547079 410.46604 52.37328 414.94645 51.382699 419.7853 50.543889 425.1618 49.846204 431.25517 49.290697 435.0187 49.044416"/>
</g>
<g clip-path="url(#clip_5)">
<path transform="matrix(1,0,0,-1,0,211.2)" stroke-width="1.5" stroke-linecap="butt" stroke-dasharray="1.5,2.475" stroke-linejoin="round" fill="none" stroke="#008000" d="M255.98128 48.342309 262.7915 48.47921 265.659 48.736127 267.80958 49.150926 269.42256 49.682786 270.85627 50.395437 272.11079 51.272916 273.1861 52.26841 274.26139 53.541929 275.33668 55.15028 276.412 57.15523 277.48728 59.621889 278.5626 62.61632 279.8171 66.86196 281.07164 72.00372 282.32615 78.11203 283.75987 86.3253 285.1936 95.84249 286.98579 109.41337 289.13636 127.56543 293.796 167.61775 295.22975 177.98183 296.48426 185.51352 297.55955 190.56957 298.45564 193.66858 299.1725 195.36559 299.71015 196.16466 300.2478 196.54996 300.60624 196.57518 300.96467 196.4149 301.50233 195.82813 302.03996 194.8304 302.75685 192.8758 303.4737 190.23482 304.36979 186.02817 305.44508 179.77967 306.6996 171.08646 308.31254 158.2437 311.18003 133.15918 314.0475 108.758358 315.83964 95.265949 317.4526 84.731838 318.88633 76.75919 320.32008 70.09253 321.5746 65.27449 322.8291 61.322496 324.08363 58.140787 325.33815 55.625688 326.41343 53.92136 327.66795 52.37156 328.92247 51.207117 330.17698 50.347257 331.61073 49.649747 333.22367 49.129877 335.19505 48.74967 337.70408 48.505735 341.64686 48.37109 351.50376 48.333185 435.0187 48.332727"/>
</g>
<path transform="matrix(1,0,0,-1,0,211.2)" stroke-width=".8" stroke-linecap="square" stroke-miterlimit="10" stroke-linejoin="miter" fill="none" stroke="#000000" d="M247.02942 40.92V204"/>
<path transform="matrix(1,0,0,-1,0,211.2)" stroke-width=".8" stroke-linecap="square" stroke-miterlimit="10" stroke-linejoin="miter" fill="none" stroke="#000000" d="M247.02942 40.92H443.97059"/>
<g>
<path transform="matrix(1,0,0,-1,0,211.2)" d="M127.84 7.2H563.16C565.08 7.2 566.04 8.16 566.04 10.08V30.84C566.04 32.76 565.08 33.72 563.16 33.72H127.84C125.92 33.72 124.96 32.76 124.96 30.84V10.08C124.96 8.16 125.92 7.2 127.84 7.2Z" fill="#ffffff" fill-opacity=".8"/>
<path transform="matrix(1,0,0,-1,0,211.2)" stroke-width="1" stroke-linecap="butt" stroke-miterlimit="10" stroke-linejoin="miter" fill="none" stroke="#cccccc" stroke-opacity=".8" d="M127.84 7.2H563.16C565.08 7.2 566.04 8.16 566.04 10.08V30.84C566.04 32.76 565.08 33.72 563.16 33.72H127.84C125.92 33.72 124.96 32.76 124.96 30.84V10.08C124.96 8.16 125.92 7.2 127.84 7.2Z"/>
</g>
<path transform="matrix(1,0,0,-1,0,211.2)" stroke-width="1.5" stroke-linecap="square" stroke-linejoin="round" fill="none" stroke="#000000" d="M130.72 22H145.12 159.52"/>
<use data-text="P" xlink:href="#font_6_80" transform="matrix(14.4,0,0,-14.4,171.04,193.72437)"/>
<path transform="matrix(1,0,0,-1,0,211.2)" stroke-width="1.5" stroke-linecap="butt" stroke-dasharray="5.55,2.4" stroke-linejoin="round" fill="none" stroke="#ff0000" d="M208.84 22H223.24 237.64"/>
<use data-text="a" xlink:href="#font_7_97" transform="matrix(14.4,0,0,-14.4,249.16,194.23999)"/>
<use data-text="r" xlink:href="#font_7_114" transform="matrix(14.4,0,0,-14.4,257.97846,194.23999)"/>
<use data-text="g" xlink:href="#font_7_103" transform="matrix(14.4,0,0,-14.4,263.89494,194.23999)"/>
<use data-text="m" xlink:href="#font_7_109" transform="matrix(14.4,0,0,-14.4,273.0296,194.23999)"/>
<use data-text="i" xlink:href="#font_7_105" transform="matrix(14.4,0,0,-14.4,287.0478,194.23999)"/>
<use data-text="n" xlink:href="#font_7_110" transform="matrix(14.4,0,0,-14.4,291.04597,194.23999)"/>
<use data-text="Q" xlink:href="#font_6_81" transform="matrix(10.08,0,0,-10.08,300.3044,196.6025)"/>
<use data-text="K" xlink:href="#font_7_75" transform="matrix(14.4,0,0,-14.4,310.96348,194.23999)"/>
<use data-text="L" xlink:href="#font_7_76" transform="matrix(14.4,0,0,-14.4,320.40028,194.23999)"/>
<use data-text="(" xlink:href="#font_7_40" transform="matrix(14.4,0,0,-14.4,328.41773,194.23999)"/>
<use data-text="P" xlink:href="#font_6_80" transform="matrix(14.4,0,0,-14.4,334.032,194.23999)"/>
<use data-text="|" xlink:href="#font_7_124" transform="matrix(14.4,0,0,-14.4,342.70997,194.23999)"/>
<use data-text="|" xlink:href="#font_7_124" transform="matrix(14.4,0,0,-14.4,347.55836,194.23999)"/>
<use data-text="Q" xlink:href="#font_6_81" transform="matrix(14.4,0,0,-14.4,352.40675,194.23999)"/>
<use data-text=")" xlink:href="#font_7_41" transform="matrix(14.4,0,0,-14.4,363.73377,194.23999)"/>
<path transform="matrix(1,0,0,-1,0,211.2)" stroke-width="1.5" stroke-linecap="butt" stroke-dasharray="1.5,2.475" stroke-linejoin="round" fill="none" stroke="#008000" d="M398.96 22H413.36 427.76"/>
<use data-text="a" xlink:href="#font_7_97" transform="matrix(14.4,0,0,-14.4,439.28,194.23999)"/>
<use data-text="r" xlink:href="#font_7_114" transform="matrix(14.4,0,0,-14.4,448.09846,194.23999)"/>
<use data-text="g" xlink:href="#font_7_103" transform="matrix(14.4,0,0,-14.4,454.01493,194.23999)"/>
<use data-text="m" xlink:href="#font_7_109" transform="matrix(14.4,0,0,-14.4,463.1496,194.23999)"/>
<use data-text="i" xlink:href="#font_7_105" transform="matrix(14.4,0,0,-14.4,477.1678,194.23999)"/>
<use data-text="n" xlink:href="#font_7_110" transform="matrix(14.4,0,0,-14.4,481.16596,194.23999)"/>
<use data-text="Q" xlink:href="#font_6_81" transform="matrix(10.08,0,0,-10.08,490.4244,196.6025)"/>
<use data-text="K" xlink:href="#font_7_75" transform="matrix(14.4,0,0,-14.4,501.08348,194.23999)"/>
<use data-text="L" xlink:href="#font_7_76" transform="matrix(14.4,0,0,-14.4,510.52027,194.23999)"/>
<use data-text="(" xlink:href="#font_7_40" transform="matrix(14.4,0,0,-14.4,518.5377,194.23999)"/>
<use data-text="Q" xlink:href="#font_6_81" transform="matrix(14.4,0,0,-14.4,524.152,194.23999)"/>
<use data-text="|" xlink:href="#font_7_124" transform="matrix(14.4,0,0,-14.4,535.479,194.23999)"/>
<use data-text="|" xlink:href="#font_7_124" transform="matrix(14.4,0,0,-14.4,540.3274,194.23999)"/>
<use data-text="P" xlink:href="#font_6_80" transform="matrix(14.4,0,0,-14.4,545.1758,194.23999)"/>
<use data-text=")" xlink:href="#font_7_41" transform="matrix(14.4,0,0,-14.4,553.85379,194.23999)"/>
<path transform="matrix(1,0,0,-1,0,211.2)" d="M483.35884 40.92H680.3V204H483.35884Z" fill="#ffffff"/>
<g clip-path="url(#clip_8)">
<path transform="matrix(1,0,0,-1,0,211.2)" stroke-width="1.5" stroke-linecap="square" stroke-linejoin="round" fill="none" stroke="#000000" d="M492.3107 48.33285 506.82725 48.44424 510.05314 48.68579 512.38296 49.08136 514.1751 49.60723 515.7881 50.320764 517.2218 51.204938 518.6555 52.377264 519.91006 53.67592 521.3438 55.503484 522.7775 57.71243 524.3905 60.63754 526.3619 64.73903 531.9176 76.76328 533.1721 78.85041 534.2474 80.25795 535.1435 81.11702 536.03958 81.66354 536.7564 81.86453 537.47329 81.8511 538.1902 81.62349 538.90707 81.18607 539.8031 80.35727 540.8784 78.98218 542.13296 76.92613 543.56668 74.11712 545.8965 68.96846 549.1224 61.888116 550.91458 58.480005 552.52749 55.888536 553.96127 53.98999 555.39498 52.461248 556.8287 51.26936 558.26248 50.368795 559.87539 49.64085 561.66757 49.10395 563.6389 48.747499 566.14797 48.520288 569.37387 48.45173 572.42056 48.59174 574.57119 48.897069 576.1841 49.334108 577.6178 49.962236 578.8723 50.77828 579.94766 51.743318 581.02297 53.021455 582.09829 54.686468 583.1735 56.81953 584.24887 59.506376 585.32418 62.83314 586.3994 66.88085 587.65396 72.60552 588.90847 79.47931 590.3422 88.76491 591.95516 100.92144 593.9265 117.72015 598.5862 158.51435 599.8407 167.47716 600.91598 173.76165 601.8121 177.81613 602.52896 180.19911 603.2458 181.76752 603.78347 182.39067 604.1419 182.53852 604.5003 182.4713 604.85879 182.18933 605.3964 181.367 605.934 180.07366 606.65097 177.6411 607.547 173.52935 608.44308 168.33982 609.6976 159.54589 611.31057 146.31098 617.7623 90.99365 619.1961 81.38112 620.6298 73.286159 621.88436 67.441127 623.13888 62.68065 624.2142 59.382204 625.2894 56.72014 626.36477 54.60822 627.44009 52.96081 628.5153 51.69698 629.59066 50.74324 630.84518 49.937009 632.2789 49.316164 633.89187 48.882688 635.8632 48.591356 638.7307 48.411886 644.28646 48.33869 671.34817 48.332727"/>
</g>
<g clip-path="url(#clip_9)">
<path transform="matrix(1,0,0,-1,0,211.2)" stroke-width="1.5" stroke-linecap="butt" stroke-dasharray="5.55,2.4" stroke-linejoin="round" fill="none" stroke="#ff0000" d="M492.3107 48.47576 501.62998 48.7484 508.08177 49.15024 513.27908 49.691186 517.75949 50.3823 521.7022 51.21696 525.28659 52.20304 528.69168 53.376523 531.9176 54.73061 534.96426 56.248689 538.0109 58.016447 541.0576 60.045289 544.1043 62.33933 547.3302 65.05176 550.73538 68.210399 554.4989 72.00653 559.3377 77.226589 569.9115 88.75664 573.31668 92.08131 576.1841 94.58088 578.6931 96.48614 581.02297 97.98216 583.1735 99.10438 585.1449 99.898548 587.11636 100.45687 589.0877 100.77148 590.8799 100.84217 592.672 100.70688 594.6434 100.32213 596.6148 99.69556 598.5862 98.83599 600.73678 97.64671 603.0666 96.08422 605.5756 94.11579 608.26388 91.72451 611.48977 88.547489 615.61178 84.15468 628.8738 69.77697 632.6373 66.15901 636.0424 63.191156 639.2684 60.674238 642.315 58.569616 645.3617 56.728078 648.4084 55.14012 651.6343 53.717836 654.86019 52.538854 658.2653 51.528779 662.0289 50.653474 666.1508 49.935144 670.8105 49.360929 671.34817 49.307947"/>
</g>
<g clip-path="url(#clip_10)">
<path transform="matrix(1,0,0,-1,0,211.2)" stroke-width="1.5" stroke-linecap="butt" stroke-dasharray="1.5,2.475" stroke-linejoin="round" fill="none" stroke="#008000" d="M492.3107 48.332727 565.96878 48.440355 569.19467 48.676088 571.3452 49.036069 573.1374 49.567899 574.57119 50.227628 575.8257 51.0434 577.0802 52.15135 578.15548 53.392995 579.2308 54.963228 580.3061 56.923368 581.38137 59.338254 582.45669 62.274 583.532 65.794979 584.7865 70.720569 586.041 76.59866 587.47476 84.54224 588.90847 93.79821 590.5214 105.67819 592.4928 121.913928 598.407 172.17778 599.8407 181.80767 600.91598 187.67441 601.8121 191.522 602.52896 193.85422 603.2458 195.48561 603.78347 196.23426 604.3211 196.56853 604.67959 196.55962 605.03799 196.36527 605.5756 195.72777 606.1133 194.68018 606.83016 192.66109 607.547 189.95879 608.44308 185.68125 609.5184 179.35794 610.7729 170.59406 612.38589 157.68946 615.43258 130.9933 618.1208 108.23257 619.91299 94.80402 621.5259 84.336269 622.95968 76.424388 624.3934 69.816448 625.6479 65.04606 626.9024 61.137029 628.1569 57.992959 629.41146 55.50998 630.48678 53.828897 631.7413 52.301538 632.9958 51.155008 634.2503 50.309144 635.684 49.62364 637.29696 49.113267 639.2684 48.740465 641.9566 48.490968 646.07858 48.36506 657.3692 48.332906 671.34817 48.332727"/>
</g>
<path transform="matrix(1,0,0,-1,0,211.2)" stroke-width=".8" stroke-linecap="square" stroke-miterlimit="10" stroke-linejoin="miter" fill="none" stroke="#000000" d="M483.35884 40.92V204"/>
<path transform="matrix(1,0,0,-1,0,211.2)" stroke-width=".8" stroke-linecap="square" stroke-miterlimit="10" stroke-linejoin="miter" fill="none" stroke="#000000" d="M483.35884 40.92H680.3"/>
</svg>
